<mxfile host="Electron" agent="Mozilla/5.0 (Macintosh; Intel Mac OS X 10_15_7) AppleWebKit/537.36 (KHTML, like Gecko) draw.io/26.0.3 Chrome/130.0.6723.137 Electron/33.2.1 Safari/537.36" version="26.0.3">
  <diagram name="Page-1" id="-es9FddvmR3eWqJwjvI-">
    <mxGraphModel dx="1246" dy="580" grid="1" gridSize="10" guides="1" tooltips="1" connect="1" arrows="1" fold="1" page="1" pageScale="1" pageWidth="827" pageHeight="1169" math="0" shadow="0">
      <root>
        <mxCell id="0" />
        <mxCell id="1" parent="0" />
        <mxCell id="K4Dns3RAwN1RNIm3ApCl-7" value="" style="whiteSpace=wrap;html=1;aspect=fixed;fillColor=#ffe6cc;strokeColor=#d79b00;gradientColor=#FFFFFF;" parent="1" vertex="1">
          <mxGeometry x="440" y="47.44" width="320" height="320" as="geometry" />
        </mxCell>
        <mxCell id="K4Dns3RAwN1RNIm3ApCl-12" style="edgeStyle=orthogonalEdgeStyle;rounded=0;orthogonalLoop=1;jettySize=auto;html=1;" parent="1" source="K4Dns3RAwN1RNIm3ApCl-1" target="K4Dns3RAwN1RNIm3ApCl-3" edge="1">
          <mxGeometry relative="1" as="geometry" />
        </mxCell>
        <mxCell id="K4Dns3RAwN1RNIm3ApCl-1" value="" style="verticalLabelPosition=bottom;html=1;verticalAlign=top;align=center;strokeColor=none;fillColor=#00BEF2;shape=mxgraph.azure.cloud_services_configuration_file;pointerEvents=1;" parent="1" vertex="1">
          <mxGeometry x="45" y="152.44" width="90" height="110" as="geometry" />
        </mxCell>
        <mxCell id="K4Dns3RAwN1RNIm3ApCl-2" value="&lt;div style=&quot;color: rgb(59, 59, 59); background-color: rgb(255, 255, 255); font-family: Menlo, Monaco, &amp;quot;Courier New&amp;quot;, monospace; font-size: 14px; line-height: 21px; white-space: pre;&quot;&gt;&lt;span style=&quot;color: #800000;&quot;&gt;Vagrantfile&lt;/span&gt;&lt;/div&gt;" style="text;html=1;align=center;verticalAlign=middle;whiteSpace=wrap;rounded=0;" parent="1" vertex="1">
          <mxGeometry x="60" y="270" width="60" height="30" as="geometry" />
        </mxCell>
        <mxCell id="K4Dns3RAwN1RNIm3ApCl-13" style="edgeStyle=orthogonalEdgeStyle;rounded=0;orthogonalLoop=1;jettySize=auto;html=1;" parent="1" source="K4Dns3RAwN1RNIm3ApCl-3" target="K4Dns3RAwN1RNIm3ApCl-4" edge="1">
          <mxGeometry relative="1" as="geometry" />
        </mxCell>
        <mxCell id="K4Dns3RAwN1RNIm3ApCl-3" value="" style="shape=image;verticalLabelPosition=bottom;labelBackgroundColor=default;verticalAlign=top;aspect=fixed;imageAspect=0;image=https://static-00.iconduck.com/assets.00/vagrant-icon-1981x2048-m89lsyi5.png;" parent="1" vertex="1">
          <mxGeometry x="250" y="160.39000000000001" width="91.04" height="94.1" as="geometry" />
        </mxCell>
        <mxCell id="K4Dns3RAwN1RNIm3ApCl-4" value="" style="verticalLabelPosition=bottom;html=1;verticalAlign=top;align=center;strokeColor=none;fillColor=#00BEF2;shape=mxgraph.azure.virtual_machine;" parent="1" vertex="1">
          <mxGeometry x="540" y="167.44" width="100" height="80" as="geometry" />
        </mxCell>
        <mxCell id="K4Dns3RAwN1RNIm3ApCl-5" value="" style="verticalLabelPosition=bottom;html=1;verticalAlign=top;align=center;strokeColor=none;fillColor=#00BEF2;shape=mxgraph.azure.virtual_machine;" parent="1" vertex="1">
          <mxGeometry x="540" y="57.44" width="100" height="80" as="geometry" />
        </mxCell>
        <mxCell id="K4Dns3RAwN1RNIm3ApCl-6" value="" style="verticalLabelPosition=bottom;html=1;verticalAlign=top;align=center;strokeColor=none;fillColor=#00BEF2;shape=mxgraph.azure.virtual_machine;" parent="1" vertex="1">
          <mxGeometry x="540" y="277.44" width="100" height="80" as="geometry" />
        </mxCell>
        <mxCell id="SutX020EyavAVAT7Hddv-5" value="" style="edgeStyle=none;curved=1;rounded=0;orthogonalLoop=1;jettySize=auto;html=1;fontSize=12;startSize=8;endSize=8;" edge="1" parent="1" source="K4Dns3RAwN1RNIm3ApCl-8" target="K4Dns3RAwN1RNIm3ApCl-7">
          <mxGeometry relative="1" as="geometry" />
        </mxCell>
        <mxCell id="K4Dns3RAwN1RNIm3ApCl-8" value="&lt;div style=&quot;color: rgb(59, 59, 59); background-color: rgb(255, 255, 255); font-family: Menlo, Monaco, &amp;quot;Courier New&amp;quot;, monospace; font-size: 14px; line-height: 21px; white-space: pre;&quot;&gt;&lt;span style=&quot;color: rgb(128, 0, 0);&quot;&gt;VMWare Fusion (Providor)&lt;/span&gt;&lt;/div&gt;" style="text;html=1;align=center;verticalAlign=middle;whiteSpace=wrap;rounded=0;" parent="1" vertex="1">
          <mxGeometry x="560" y="370" width="60" height="30" as="geometry" />
        </mxCell>
        <mxCell id="K4Dns3RAwN1RNIm3ApCl-11" style="edgeStyle=orthogonalEdgeStyle;rounded=0;orthogonalLoop=1;jettySize=auto;html=1;entryX=0;entryY=0.5;entryDx=0;entryDy=0;entryPerimeter=0;" parent="1" source="K4Dns3RAwN1RNIm3ApCl-3" target="K4Dns3RAwN1RNIm3ApCl-5" edge="1">
          <mxGeometry relative="1" as="geometry" />
        </mxCell>
        <mxCell id="K4Dns3RAwN1RNIm3ApCl-14" style="edgeStyle=orthogonalEdgeStyle;rounded=0;orthogonalLoop=1;jettySize=auto;html=1;entryX=0;entryY=0.5;entryDx=0;entryDy=0;entryPerimeter=0;" parent="1" source="K4Dns3RAwN1RNIm3ApCl-3" target="K4Dns3RAwN1RNIm3ApCl-6" edge="1">
          <mxGeometry relative="1" as="geometry" />
        </mxCell>
        <mxCell id="SutX020EyavAVAT7Hddv-6" value="&lt;span style=&quot;color: rgb(128, 0, 0); font-family: Menlo, Monaco, &amp;quot;Courier New&amp;quot;, monospace; font-size: 14px; font-style: normal; font-variant-ligatures: normal; font-variant-caps: normal; font-weight: 400; letter-spacing: normal; orphans: 2; text-align: center; text-indent: 0px; text-transform: none; widows: 2; word-spacing: 0px; -webkit-text-stroke-width: 0px; white-space: pre; background-color: rgb(255, 255, 255); text-decoration-thickness: initial; text-decoration-style: initial; text-decoration-color: initial; float: none; display: inline !important;&quot;&gt;Building &amp;amp; Maintaining portable Virtual Environments with Vagrant&lt;/span&gt;" style="text;whiteSpace=wrap;html=1;" vertex="1" parent="1">
          <mxGeometry x="90" y="430" width="519" height="50" as="geometry" />
        </mxCell>
      </root>
    </mxGraphModel>
  </diagram>
</mxfile>
